<svg width="160" height="41" viewBox="0 0 160 41" fill="none" xmlns="http://www.w3.org/2000/svg">
<rect width="115" height="41" rx="6" fill="#0E7D9A"/>
<path d="M0.25 6C0.25 2.82436 2.82436 0.25 6 0.25H40.75V40.75H6C2.82436 40.75 0.25 38.1756 0.25 35V6Z" fill="white" stroke="#0E7D9A" stroke-width="0.5"/>
<path d="M49.8065 19L49.229 17.5405H46.352L45.806 19H43.853L46.9715 11.566H48.7145L51.8015 19H49.8065ZM47.8115 13.5505L46.8665 16.102H48.7355L47.8115 13.5505ZM58.5628 17.971C58.2338 18.349 57.8278 18.65 57.3448 18.874C56.8618 19.091 56.3053 19.1995 55.6753 19.1995C55.1013 19.1995 54.5693 19.105 54.0793 18.916C53.5963 18.727 53.1763 18.461 52.8193 18.118C52.4623 17.768 52.1823 17.3515 51.9793 16.8685C51.7763 16.3855 51.6748 15.8535 51.6748 15.2725C51.6748 14.6775 51.7763 14.1385 51.9793 13.6555C52.1893 13.1725 52.4763 12.763 52.8403 12.427C53.2043 12.084 53.6313 11.8215 54.1213 11.6395C54.6113 11.4575 55.1398 11.3665 55.7068 11.3665C56.2318 11.3665 56.7463 11.461 57.2503 11.65C57.7613 11.832 58.1743 12.1015 58.4893 12.4585L57.2713 13.6765C57.1033 13.4455 56.8828 13.274 56.6098 13.162C56.3368 13.05 56.0568 12.994 55.7698 12.994C55.4548 12.994 55.1643 13.0535 54.8983 13.1725C54.6393 13.2845 54.4153 13.442 54.2263 13.645C54.0373 13.848 53.8903 14.0895 53.7853 14.3695C53.6803 14.6425 53.6278 14.9435 53.6278 15.2725C53.6278 15.6085 53.6803 15.9165 53.7853 16.1965C53.8903 16.4765 54.0338 16.718 54.2158 16.921C54.4048 17.117 54.6288 17.271 54.8878 17.383C55.1468 17.495 55.4303 17.551 55.7383 17.551C56.0953 17.551 56.4068 17.481 56.6728 17.341C56.9388 17.201 57.1523 17.019 57.3133 16.795L58.5628 17.971ZM65.5408 17.971C65.2118 18.349 64.8058 18.65 64.3228 18.874C63.8398 19.091 63.2833 19.1995 62.6533 19.1995C62.0793 19.1995 61.5473 19.105 61.0573 18.916C60.5743 18.727 60.1543 18.461 59.7973 18.118C59.4403 17.768 59.1603 17.3515 58.9573 16.8685C58.7543 16.3855 58.6528 15.8535 58.6528 15.2725C58.6528 14.6775 58.7543 14.1385 58.9573 13.6555C59.1673 13.1725 59.4543 12.763 59.8183 12.427C60.1823 12.084 60.6093 11.8215 61.0993 11.6395C61.5893 11.4575 62.1178 11.3665 62.6848 11.3665C63.2098 11.3665 63.7243 11.461 64.2283 11.65C64.7393 11.832 65.1523 12.1015 65.4673 12.4585L64.2493 13.6765C64.0813 13.4455 63.8608 13.274 63.5878 13.162C63.3148 13.05 63.0348 12.994 62.7478 12.994C62.4328 12.994 62.1423 13.0535 61.8763 13.1725C61.6173 13.2845 61.3933 13.442 61.2043 13.645C61.0153 13.848 60.8683 14.0895 60.7633 14.3695C60.6583 14.6425 60.6058 14.9435 60.6058 15.2725C60.6058 15.6085 60.6583 15.9165 60.7633 16.1965C60.8683 16.4765 61.0118 16.718 61.1938 16.921C61.3828 17.117 61.6068 17.271 61.8658 17.383C62.1248 17.495 62.4083 17.551 62.7163 17.551C63.0733 17.551 63.3848 17.481 63.6508 17.341C63.9168 17.201 64.1303 17.019 64.2913 16.795L65.5408 17.971ZM70.0799 19L68.4734 16.0495H67.8644V19H66.1004V11.566H68.9354C69.2924 11.566 69.6389 11.6045 69.9749 11.6815C70.3179 11.7515 70.6224 11.874 70.8884 12.049C71.1614 12.224 71.3784 12.455 71.5394 12.742C71.7004 13.029 71.7809 13.386 71.7809 13.813C71.7809 14.317 71.6444 14.7405 71.3714 15.0835C71.0984 15.4265 70.7204 15.6715 70.2374 15.8185L72.1799 19H70.0799ZM70.0064 13.8445C70.0064 13.6695 69.9679 13.5295 69.8909 13.4245C69.8209 13.3125 69.7264 13.2285 69.6074 13.1725C69.4954 13.1095 69.3659 13.0675 69.2189 13.0465C69.0789 13.0255 68.9424 13.015 68.8094 13.015H67.8539V14.7475H68.7044C68.8514 14.7475 69.0019 14.737 69.1559 14.716C69.3099 14.688 69.4499 14.6425 69.5759 14.5795C69.7019 14.5165 69.8034 14.4255 69.8804 14.3065C69.9644 14.1875 70.0064 14.0335 70.0064 13.8445ZM72.8528 19V11.566H77.8508V13.0885H74.5853V14.485H77.6723V15.9235H74.5853V17.467H78.0398V19H72.8528ZM85.9612 15.262C85.9612 15.913 85.8387 16.4765 85.5937 16.9525C85.3557 17.4215 85.0372 17.81 84.6382 18.118C84.2462 18.419 83.8017 18.643 83.3047 18.79C82.8077 18.93 82.3037 19 81.7927 19H79.0207V11.566H81.7087C82.2337 11.566 82.7517 11.629 83.2627 11.755C83.7737 11.874 84.2287 12.077 84.6277 12.364C85.0267 12.644 85.3487 13.022 85.5937 13.498C85.8387 13.974 85.9612 14.562 85.9612 15.262ZM84.0922 15.262C84.0922 14.842 84.0222 14.4955 83.8822 14.2225C83.7492 13.9425 83.5672 13.722 83.3362 13.561C83.1122 13.393 82.8532 13.274 82.5592 13.204C82.2722 13.134 81.9747 13.099 81.6667 13.099H80.7742V17.446H81.6247C81.9467 17.446 82.2547 17.411 82.5487 17.341C82.8497 17.264 83.1122 17.1415 83.3362 16.9735C83.5672 16.8055 83.7492 16.5815 83.8822 16.3015C84.0222 16.0215 84.0922 15.675 84.0922 15.262ZM86.942 19V11.566H88.748V19H86.942ZM93.2563 13.099V19H91.4608V13.099H89.3608V11.566H95.3563V13.099H93.2563ZM95.9659 19V11.566H100.964V13.0885H97.6984V14.485H100.785V15.9235H97.6984V17.467H101.153V19H95.9659ZM109.074 15.262C109.074 15.913 108.952 16.4765 108.707 16.9525C108.469 17.4215 108.15 17.81 107.751 18.118C107.359 18.419 106.915 18.643 106.418 18.79C105.921 18.93 105.417 19 104.906 19H102.134V11.566H104.822C105.347 11.566 105.865 11.629 106.376 11.755C106.887 11.874 107.342 12.077 107.741 12.364C108.14 12.644 108.462 13.022 108.707 13.498C108.952 13.974 109.074 14.562 109.074 15.262ZM107.205 15.262C107.205 14.842 107.135 14.4955 106.995 14.2225C106.862 13.9425 106.68 13.722 106.449 13.561C106.225 13.393 105.966 13.274 105.672 13.204C105.385 13.134 105.088 13.099 104.78 13.099H103.887V17.446H104.738C105.06 17.446 105.368 17.411 105.662 17.341C105.963 17.264 106.225 17.1415 106.449 16.9735C106.68 16.8055 106.862 16.5815 106.995 16.3015C107.135 16.0215 107.205 15.675 107.205 15.262ZM50.5625 26.837C50.5625 27.243 50.482 27.586 50.321 27.866C50.16 28.139 49.9465 28.3595 49.6805 28.5275C49.4145 28.6955 49.11 28.818 48.767 28.895C48.431 28.965 48.0845 29 47.7275 29H44.7665V21.566H47.7275C48.0145 21.566 48.3085 21.5975 48.6095 21.6605C48.9105 21.7165 49.1835 21.818 49.4285 21.965C49.6735 22.105 49.873 22.2975 50.027 22.5425C50.181 22.7875 50.258 23.099 50.258 23.477C50.258 23.89 50.146 24.233 49.922 24.506C49.698 24.772 49.404 24.9645 49.04 25.0835V25.1045C49.25 25.1395 49.446 25.206 49.628 25.304C49.817 25.395 49.978 25.514 50.111 25.661C50.251 25.808 50.3595 25.9795 50.4365 26.1755C50.5205 26.3715 50.5625 26.592 50.5625 26.837ZM48.5255 23.7185C48.5255 23.4665 48.4275 23.2845 48.2315 23.1725C48.0425 23.0535 47.759 22.994 47.381 22.994H46.499V24.527H47.465C47.801 24.527 48.06 24.4605 48.242 24.3275C48.431 24.1875 48.5255 23.9845 48.5255 23.7185ZM48.767 26.669C48.767 26.361 48.6515 26.1475 48.4205 26.0285C48.1895 25.9095 47.8815 25.85 47.4965 25.85H46.499V27.551H47.507C47.647 27.551 47.7905 27.5405 47.9375 27.5195C48.0915 27.4915 48.228 27.446 48.347 27.383C48.473 27.32 48.5745 27.2325 48.6515 27.1205C48.7285 27.0015 48.767 26.851 48.767 26.669ZM57.8394 26.1965C57.8394 26.6445 57.7624 27.054 57.6084 27.425C57.4614 27.789 57.2479 28.104 56.9679 28.37C56.6879 28.629 56.3484 28.832 55.9494 28.979C55.5574 29.126 55.1199 29.1995 54.6369 29.1995C54.1469 29.1995 53.7059 29.126 53.3139 28.979C52.9219 28.832 52.5894 28.629 52.3164 28.37C52.0434 28.104 51.8334 27.789 51.6864 27.425C51.5394 27.054 51.4659 26.6445 51.4659 26.1965V21.566H53.2509V26.0495C53.2509 26.2525 53.2754 26.445 53.3244 26.627C53.3804 26.809 53.4609 26.9735 53.5659 27.1205C53.6779 27.2605 53.8214 27.3725 53.9964 27.4565C54.1784 27.5405 54.3954 27.5825 54.6474 27.5825C54.8994 27.5825 55.1129 27.5405 55.2879 27.4565C55.4699 27.3725 55.6169 27.2605 55.7289 27.1205C55.8409 26.9735 55.9214 26.809 55.9704 26.627C56.0194 26.445 56.0439 26.2525 56.0439 26.0495V21.566H57.8394V26.1965ZM63.0084 23.498C62.8544 23.302 62.6514 23.148 62.3994 23.036C62.1544 22.917 61.9164 22.8575 61.6854 22.8575C61.5664 22.8575 61.4439 22.868 61.3179 22.889C61.1989 22.91 61.0904 22.952 60.9924 23.015C60.8944 23.071 60.8104 23.148 60.7404 23.246C60.6774 23.337 60.6459 23.456 60.6459 23.603C60.6459 23.729 60.6704 23.834 60.7194 23.918C60.7754 24.002 60.8524 24.0755 60.9504 24.1385C61.0554 24.2015 61.1779 24.261 61.3179 24.317C61.4579 24.366 61.6154 24.4185 61.7904 24.4745C62.0424 24.5585 62.3049 24.653 62.5779 24.758C62.8509 24.856 63.0994 24.989 63.3234 25.157C63.5474 25.325 63.7329 25.535 63.8799 25.787C64.0269 26.032 64.1004 26.34 64.1004 26.711C64.1004 27.138 64.0199 27.509 63.8589 27.824C63.7049 28.132 63.4949 28.3875 63.2289 28.5905C62.9629 28.7935 62.6584 28.944 62.3154 29.042C61.9724 29.14 61.6189 29.189 61.2549 29.189C60.7229 29.189 60.2084 29.098 59.7114 28.916C59.2144 28.727 58.8014 28.461 58.4724 28.118L59.6484 26.921C59.8304 27.145 60.0684 27.334 60.3624 27.488C60.6634 27.635 60.9609 27.7085 61.2549 27.7085C61.3879 27.7085 61.5174 27.6945 61.6434 27.6665C61.7694 27.6385 61.8779 27.593 61.9689 27.53C62.0669 27.467 62.1439 27.383 62.1999 27.278C62.2559 27.173 62.2839 27.047 62.2839 26.9C62.2839 26.76 62.2489 26.641 62.1789 26.543C62.1089 26.445 62.0074 26.3575 61.8744 26.2805C61.7484 26.1965 61.5874 26.123 61.3914 26.06C61.2024 25.99 60.9854 25.9165 60.7404 25.8395C60.5024 25.7625 60.2679 25.6715 60.0369 25.5665C59.8129 25.4615 59.6099 25.3285 59.4279 25.1675C59.2529 24.9995 59.1094 24.8 58.9974 24.569C58.8924 24.331 58.8399 24.044 58.8399 23.708C58.8399 23.295 58.9239 22.9415 59.0919 22.6475C59.2599 22.3535 59.4804 22.112 59.7534 21.923C60.0264 21.734 60.3344 21.5975 60.6774 21.5135C61.0204 21.4225 61.3669 21.377 61.7169 21.377C62.1369 21.377 62.5639 21.454 62.9979 21.608C63.4389 21.762 63.8239 21.9895 64.1529 22.2905L63.0084 23.498ZM65.075 29V21.566H66.881V29H65.075ZM72.9327 29L69.9402 24.1385H69.9087L69.9507 29H68.2077V21.566H70.2552L73.2373 26.417H73.2687L73.2267 21.566H74.9697V29H72.9327ZM76.2932 29V21.566H81.2912V23.0885H78.0257V24.485H81.1127V25.9235H78.0257V27.467H81.4802V29H76.2932ZM86.3881 23.498C86.2341 23.302 86.0311 23.148 85.7791 23.036C85.5341 22.917 85.2961 22.8575 85.0651 22.8575C84.9461 22.8575 84.8236 22.868 84.6976 22.889C84.5786 22.91 84.4701 22.952 84.3721 23.015C84.2741 23.071 84.1901 23.148 84.1201 23.246C84.0571 23.337 84.0256 23.456 84.0256 23.603C84.0256 23.729 84.0501 23.834 84.0991 23.918C84.1551 24.002 84.2321 24.0755 84.3301 24.1385C84.4351 24.2015 84.5576 24.261 84.6976 24.317C84.8376 24.366 84.9951 24.4185 85.1701 24.4745C85.4221 24.5585 85.6846 24.653 85.9576 24.758C86.2306 24.856 86.4791 24.989 86.7031 25.157C86.9271 25.325 87.1126 25.535 87.2596 25.787C87.4066 26.032 87.4801 26.34 87.4801 26.711C87.4801 27.138 87.3996 27.509 87.2386 27.824C87.0846 28.132 86.8746 28.3875 86.6086 28.5905C86.3426 28.7935 86.0381 28.944 85.6951 29.042C85.3521 29.14 84.9986 29.189 84.6346 29.189C84.1026 29.189 83.5881 29.098 83.0911 28.916C82.5941 28.727 82.1811 28.461 81.8521 28.118L83.0281 26.921C83.2101 27.145 83.4481 27.334 83.7421 27.488C84.0431 27.635 84.3406 27.7085 84.6346 27.7085C84.7676 27.7085 84.8971 27.6945 85.0231 27.6665C85.1491 27.6385 85.2576 27.593 85.3486 27.53C85.4466 27.467 85.5236 27.383 85.5796 27.278C85.6356 27.173 85.6636 27.047 85.6636 26.9C85.6636 26.76 85.6286 26.641 85.5586 26.543C85.4886 26.445 85.3871 26.3575 85.2541 26.2805C85.1281 26.1965 84.9671 26.123 84.7711 26.06C84.5821 25.99 84.3651 25.9165 84.1201 25.8395C83.8821 25.7625 83.6476 25.6715 83.4166 25.5665C83.1926 25.4615 82.9896 25.3285 82.8076 25.1675C82.6326 24.9995 82.4891 24.8 82.3771 24.569C82.2721 24.331 82.2196 24.044 82.2196 23.708C82.2196 23.295 82.3036 22.9415 82.4716 22.6475C82.6396 22.3535 82.8601 22.112 83.1331 21.923C83.4061 21.734 83.7141 21.5975 84.0571 21.5135C84.4001 21.4225 84.7466 21.377 85.0966 21.377C85.5166 21.377 85.9436 21.454 86.3776 21.608C86.8186 21.762 87.2036 21.9895 87.5326 22.2905L86.3881 23.498ZM92.3817 23.498C92.2277 23.302 92.0247 23.148 91.7727 23.036C91.5277 22.917 91.2897 22.8575 91.0587 22.8575C90.9397 22.8575 90.8172 22.868 90.6912 22.889C90.5722 22.91 90.4637 22.952 90.3657 23.015C90.2677 23.071 90.1837 23.148 90.1137 23.246C90.0507 23.337 90.0192 23.456 90.0192 23.603C90.0192 23.729 90.0437 23.834 90.0927 23.918C90.1487 24.002 90.2257 24.0755 90.3237 24.1385C90.4287 24.2015 90.5512 24.261 90.6912 24.317C90.8312 24.366 90.9887 24.4185 91.1637 24.4745C91.4157 24.5585 91.6782 24.653 91.9512 24.758C92.2242 24.856 92.4727 24.989 92.6967 25.157C92.9207 25.325 93.1062 25.535 93.2532 25.787C93.4002 26.032 93.4737 26.34 93.4737 26.711C93.4737 27.138 93.3932 27.509 93.2322 27.824C93.0782 28.132 92.8682 28.3875 92.6022 28.5905C92.3362 28.7935 92.0317 28.944 91.6887 29.042C91.3457 29.14 90.9922 29.189 90.6282 29.189C90.0962 29.189 89.5817 29.098 89.0847 28.916C88.5877 28.727 88.1747 28.461 87.8457 28.118L89.0217 26.921C89.2037 27.145 89.4417 27.334 89.7357 27.488C90.0367 27.635 90.3342 27.7085 90.6282 27.7085C90.7612 27.7085 90.8907 27.6945 91.0167 27.6665C91.1427 27.6385 91.2512 27.593 91.3422 27.53C91.4402 27.467 91.5172 27.383 91.5732 27.278C91.6292 27.173 91.6572 27.047 91.6572 26.9C91.6572 26.76 91.6222 26.641 91.5522 26.543C91.4822 26.445 91.3807 26.3575 91.2477 26.2805C91.1217 26.1965 90.9607 26.123 90.7647 26.06C90.5757 25.99 90.3587 25.9165 90.1137 25.8395C89.8757 25.7625 89.6412 25.6715 89.4102 25.5665C89.1862 25.4615 88.9832 25.3285 88.8012 25.1675C88.6262 24.9995 88.4827 24.8 88.3707 24.569C88.2657 24.331 88.2132 24.044 88.2132 23.708C88.2132 23.295 88.2972 22.9415 88.4652 22.6475C88.6332 22.3535 88.8537 22.112 89.1267 21.923C89.3997 21.734 89.7077 21.5975 90.0507 21.5135C90.3937 21.4225 90.7402 21.377 91.0902 21.377C91.5102 21.377 91.9372 21.454 92.3712 21.608C92.8122 21.762 93.1972 21.9895 93.5262 22.2905L92.3817 23.498Z" fill="white"/>
<path d="M23.3764 18.9354C23.2299 18.9354 23.1874 18.8693 23.2536 18.7323C23.4189 18.3921 23.5512 18.0424 23.6268 17.6691C23.7686 16.932 23.5938 16.28 23.1071 15.7177C22.748 15.2972 22.2991 14.9854 21.8361 14.6924C21.3211 14.3617 20.7824 14.0734 20.2816 13.7191C19.4736 13.1521 18.7176 12.5284 18.0797 11.7629C17.6214 11.2101 17.2528 10.6053 17.0875 9.89655C16.9079 9.13111 17.0166 8.39401 17.3095 7.67581C17.5789 7.02849 17.9616 6.44732 18.3727 5.88505C18.8357 5.24717 19.3413 4.63765 19.7902 3.98088C19.9792 3.70211 20.154 3.41861 20.3052 3.12093C20.3619 3.01226 20.4517 2.97918 20.6076 3.01226C20.7352 3.04061 20.8013 3.12093 20.806 3.23433C20.806 3.30048 20.7824 3.36191 20.7541 3.42333C20.6454 3.65958 20.5603 3.89583 20.5367 4.1557C20.5225 4.3069 20.5367 4.44865 20.5981 4.5904C20.7493 4.94478 20.9856 5.233 21.2549 5.50232C21.7274 5.96537 22.2708 6.33392 22.8236 6.69774C23.5371 7.16552 24.2647 7.60021 24.9593 8.09161C25.4743 8.45543 25.9704 8.84288 26.3957 9.32011C26.906 9.89183 27.2603 10.5439 27.4021 11.3046C27.5249 11.9755 27.4588 12.637 27.2745 13.2938C27.0761 14.0026 26.7595 14.6641 26.3815 15.2925C25.7909 16.2847 25.0727 17.1825 24.3261 18.0566C24.1135 18.307 23.9009 18.5527 23.6883 18.7984C23.5938 18.8929 23.4993 18.9354 23.3764 18.9354Z" fill="#0E7D9A"/>
<path d="M22.4692 19.2047C22.4645 19.819 22.3086 20.4049 22.0676 20.9672C21.699 21.8318 21.1698 22.5973 20.5556 23.306C20.532 23.3297 20.5083 23.3533 20.48 23.3722C20.4517 23.3911 20.4139 23.4053 20.3761 23.3864C20.3383 23.3627 20.343 23.3249 20.3524 23.2871C20.4139 22.9091 20.3194 22.5642 20.1256 22.2429C19.8847 21.8507 19.5445 21.5483 19.1806 21.279C18.6609 20.8916 18.0939 20.5703 17.5316 20.249C16.9835 19.9324 16.4638 19.578 16.0291 19.1102C15.6794 18.737 15.4195 18.3165 15.3439 17.8014C15.2778 17.3762 15.3581 16.9746 15.5093 16.5777C15.703 16.0721 16.0007 15.6232 16.3031 15.1791C16.5961 14.7491 16.9032 14.3333 17.1536 13.8797C17.2245 13.7521 17.2906 13.6198 17.3426 13.4781C17.371 13.4025 17.4135 13.3694 17.4938 13.3836C17.5694 13.3978 17.6167 13.445 17.6167 13.5206C17.6261 13.9553 17.834 14.3049 18.0986 14.6215C18.4199 15.0042 18.8263 15.283 19.2468 15.5382C19.7618 15.8547 20.3005 16.1193 20.8107 16.4454C21.3352 16.7808 21.7888 17.1966 22.1007 17.7447C22.3558 18.1936 22.4692 18.685 22.4692 19.2047Z" fill="#0E7D9A"/>
<path d="M22.181 32.704C22.4503 32.7843 22.696 32.893 22.9086 33.0584C23.3481 33.4033 23.5654 33.8663 23.5749 34.4144C23.5843 35.0712 23.3481 35.6382 22.8519 36.0776C22.5543 36.3422 22.1999 36.4745 21.803 36.4793C20.8533 36.4934 19.9083 36.5123 18.9586 36.5265C18.401 36.536 17.8482 36.5312 17.2906 36.5359C17.215 36.5359 17.1961 36.5218 17.1961 36.4415C17.2009 35.4398 17.1961 34.4381 17.1961 33.4364C17.1961 32.0141 17.1961 30.5919 17.1961 29.1697C17.1961 29.028 17.182 29.0469 17.3143 29.0469C18.7412 29.0421 20.1634 29.0516 21.5904 29.0705C21.992 29.0752 22.3038 29.2689 22.5637 29.5619C23.315 30.4029 23.2536 31.7165 22.4267 32.4961C22.3464 32.5622 22.266 32.6284 22.181 32.704ZM20.1115 35.1704C20.1115 35.1752 20.1115 35.1846 20.1115 35.1893C20.4706 35.1893 20.8297 35.1846 21.1887 35.1893C21.4911 35.1941 21.699 35.057 21.8219 34.7924C21.9684 34.4711 21.9778 34.1404 21.8455 33.8096C21.7274 33.5167 21.51 33.3749 21.1887 33.3797C21.0517 33.3797 20.91 33.3891 20.773 33.3891C20.1682 33.3986 19.5681 33.4127 18.9633 33.4175C18.8877 33.4175 18.8641 33.4364 18.8641 33.5214C18.8688 34.0412 18.8688 34.5609 18.8641 35.0807C18.8641 35.1515 18.8782 35.1752 18.9538 35.1704C19.3366 35.1704 19.724 35.1704 20.1115 35.1704ZM19.9744 32.0236C20.3052 32.0236 20.6359 32.0236 20.9714 32.0236C21.2691 32.0236 21.4817 31.8535 21.5526 31.5605C21.6329 31.2156 21.5573 30.8943 21.3447 30.6108C21.2313 30.4549 21.0754 30.3793 20.8769 30.3746C20.2343 30.3651 19.5917 30.351 18.9491 30.3368C18.8782 30.3368 18.8593 30.3557 18.8593 30.4266C18.8641 30.9321 18.8641 31.433 18.8593 31.9385C18.8593 32.0141 18.8877 32.0236 18.9538 32.0236C19.294 32.0189 19.6342 32.0236 19.9744 32.0236Z" fill="#0E7D9A"/>
<path d="M29.2921 32.704C29.5661 32.7843 29.8166 32.8977 30.0292 33.0678C30.4733 33.4175 30.686 33.89 30.686 34.4475C30.686 35.0759 30.4639 35.6146 30.0008 36.0446C29.6937 36.3328 29.3252 36.4745 28.8999 36.4793C27.9549 36.4934 27.0099 36.5123 26.0649 36.5265C25.5074 36.536 24.9498 36.5312 24.3876 36.5359C24.312 36.5359 24.3025 36.5076 24.3025 36.4415C24.3025 35.4776 24.3025 34.5089 24.3025 33.545C24.3025 32.085 24.3025 30.6297 24.3025 29.1697C24.3025 29.028 24.2836 29.0469 24.4301 29.0469C25.8523 29.0421 27.2745 29.0516 28.6967 29.0705C29.1503 29.0752 29.4905 29.3162 29.7551 29.6658C30.4639 30.5919 30.3032 31.8771 29.3913 32.6237C29.3677 32.6426 29.3393 32.6662 29.2921 32.704ZM27.2225 35.1704C27.2225 35.1752 27.2225 35.1846 27.2225 35.1893C27.5864 35.1893 27.9455 35.1846 28.3093 35.1893C28.6022 35.1941 28.8054 35.0618 28.9283 34.8066C29.0842 34.4806 29.0936 34.1498 28.9613 33.8144C28.8432 33.5167 28.6259 33.3749 28.2998 33.3797C28.1628 33.3797 28.0211 33.3891 27.884 33.3891C27.2792 33.3986 26.6697 33.4127 26.0649 33.4175C26.0082 33.4175 25.9751 33.4269 25.9751 33.5025C25.9799 34.0317 25.9799 34.5562 25.9751 35.0854C25.9751 35.1563 25.9988 35.1704 26.0649 35.1657C26.4524 35.1704 26.8398 35.1704 27.2225 35.1704ZM27.0855 32.0236C27.421 32.0236 27.7565 32.0236 28.0919 32.0236C28.3802 32.0236 28.5975 31.8582 28.6684 31.5794C28.7534 31.2156 28.6778 30.8849 28.4463 30.5919C28.3376 30.4549 28.1912 30.384 28.0163 30.3793C27.3643 30.3651 26.7122 30.3557 26.0602 30.3368C25.994 30.3368 25.9799 30.3557 25.9799 30.4171C25.9799 30.9227 25.9846 31.433 25.9799 31.9385C25.9799 32.0094 25.9988 32.0236 26.0649 32.0236C26.4051 32.0189 26.7453 32.0236 27.0855 32.0236Z" fill="#0E7D9A"/>
<path d="M14.9801 32.704C15.2211 32.7796 15.4479 32.8694 15.6463 33.0159C16.1188 33.3561 16.3645 33.8238 16.374 34.405C16.3882 35.1137 16.1283 35.7044 15.566 36.1532C15.2873 36.3753 14.966 36.4793 14.6116 36.484C13.6619 36.4982 12.7169 36.5171 11.7671 36.5312C11.2049 36.5407 10.6426 36.536 10.085 36.5407C10.0047 36.5407 10 36.5123 10 36.4462C10 35.2886 10 34.1262 10 32.9686C10 31.6976 10 30.4266 10 29.1556C10 29.0658 10.0236 29.0469 10.1087 29.0469C11.2049 29.0516 12.3058 29.0563 13.402 29.0611C13.6997 29.0611 13.9926 29.0752 14.2903 29.0705C14.7392 29.061 15.0888 29.25 15.377 29.5761C16.1614 30.4785 16.0338 31.8488 15.0983 32.619C15.0557 32.6379 15.0227 32.6662 14.9801 32.704ZM12.9106 35.1704C12.9106 35.1752 12.9106 35.1799 12.9106 35.1846C13.0901 35.1846 13.2744 35.1846 13.454 35.1846C13.6382 35.1846 13.8225 35.1846 14.0068 35.1893C14.2856 35.1988 14.484 35.0712 14.6069 34.8302C14.7628 34.5326 14.7817 34.216 14.6825 33.8994C14.588 33.5923 14.3753 33.3561 13.9643 33.3797C13.8367 33.3891 13.7044 33.3891 13.5768 33.3891C12.9673 33.3986 12.3578 33.4128 11.7482 33.4222C11.6868 33.4222 11.6679 33.4411 11.6679 33.5025C11.6726 34.0317 11.6726 34.5609 11.6679 35.0854C11.6679 35.1563 11.6915 35.1704 11.7577 35.1657C12.1357 35.1704 12.5231 35.1704 12.9106 35.1704ZM12.7736 32.0236C13.1043 32.0236 13.4398 32.0236 13.7705 32.0236C14.0777 32.0236 14.295 31.8488 14.3564 31.5511C14.4273 31.2109 14.3564 30.8991 14.1485 30.6203C14.0351 30.4644 13.8792 30.384 13.6855 30.384C13.0382 30.3746 12.3956 30.3604 11.7482 30.3415C11.6821 30.3415 11.6632 30.3557 11.6632 30.4266C11.6679 30.9321 11.6679 31.4424 11.6632 31.948C11.6632 32.0236 11.6868 32.0283 11.753 32.0283C12.0932 32.0189 12.4334 32.0236 12.7736 32.0236Z" fill="#0E7D9A"/>
<path d="M27.1375 25.5692C27.1091 25.5692 27.0855 25.5692 27.0572 25.5692C26.0413 25.607 25.0254 25.5881 24.0096 25.5928C23.7591 25.5928 23.7591 25.5928 23.6788 25.8291C23.4756 26.4244 23.2725 27.0151 23.074 27.6104C23.0504 27.6766 23.022 27.6955 22.9559 27.6955C21.9164 27.6955 20.8722 27.7002 19.8327 27.7002C19.1098 27.7049 18.3916 27.7049 17.6686 27.7144C17.593 27.7144 17.5647 27.6907 17.5411 27.6246C17.3048 26.9773 17.0638 26.3299 16.8323 25.6826C16.8087 25.6117 16.7756 25.5928 16.7047 25.5928C15.8495 25.5976 14.9943 25.5976 14.1391 25.5928C13.9312 25.5928 13.7233 25.5692 13.5201 25.5739C13.4445 25.5739 13.4492 25.5503 13.4681 25.4936C13.6335 25.0353 13.7942 24.5817 13.9548 24.1234C13.9737 24.0714 13.9832 24.0053 14.0682 24.0478C14.0871 24.0572 14.1107 24.0478 14.1296 24.0478C18.2404 24.0478 22.3558 24.0478 26.4665 24.0478C26.5138 24.0478 26.5752 24.0242 26.6083 24.0478C26.6414 24.0761 26.6461 24.1376 26.665 24.1895C26.8162 24.6195 26.9721 25.0542 27.1233 25.4842C27.128 25.5031 27.1422 25.5314 27.1375 25.5692Z" fill="#0E7D9A"/>
<circle cx="139.5" cy="20.5" r="20.5" fill="#0E7D9A"/>
<path d="M137.443 28L136.205 24.8725H130.04L128.87 28H124.685L131.368 12.07H135.103L141.718 28H137.443ZM133.168 16.3225L131.143 21.79H135.148L133.168 16.3225ZM148.794 22.6V27.3025H145.869V22.6H141.077V19.765H145.847V15.0625H148.772V19.765H153.564V22.6H148.794Z" fill="white"/>
</svg>
