<svg width="24" height="24" viewBox="0 0 24 24" fill="none" xmlns="http://www.w3.org/2000/svg">
<path d="M23.5 2C23.5 0.89543 22.6046 0 21.5 0H2.5C1.39543 0 0.5 0.89543 0.5 2V14C0.5 15.1046 1.39543 16 2.5 16H21.5C22.6046 16 23.5 15.1046 23.5 14V2ZM21.5 13.5C21.5 13.7761 21.2761 14 21 14H3C2.72386 14 2.5 13.7761 2.5 13.5V2.5C2.5 2.22386 2.72386 2 3 2H21C21.2761 2 21.5 2.22386 21.5 2.5V13.5Z" fill="#52BAD5"/>
<path d="M22.327 22.746L21.08 18.258C20.9685 17.8131 20.5687 17.501 20.11 17.501H3.891C3.43653 17.5005 3.03889 17.8066 2.923 18.246L1.67 22.759C1.59584 23.0577 1.66332 23.3739 1.85296 23.6162C2.04259 23.8586 2.33326 24.0001 2.641 24H21.36C21.6676 23.9985 21.9578 23.8567 22.148 23.615C22.3381 23.3729 22.4053 23.0564 22.33 22.758L22.327 22.746ZM16.5 21.751C16.5 22.0271 16.2761 22.251 16 22.251H8C7.72386 22.251 7.5 22.0271 7.5 21.751C7.5 21.4749 7.72386 21.251 8 21.251H16C16.2761 21.251 16.5 21.4749 16.5 21.751Z" fill="#52BAD5"/>
</svg>
