<svg width="24" height="24" viewBox="0 0 24 24" fill="none" xmlns="http://www.w3.org/2000/svg">
<path d="M19.207 15.23C19.056 15.243 18.907 15.25 18.75 15.25C18.593 15.25 18.444 15.243 18.293 15.23C18.1531 15.2179 18.0146 15.2652 17.9113 15.3603C17.808 15.4554 17.7495 15.5896 17.75 15.73V16.75C17.75 19.6495 15.3995 22 12.5 22C9.6005 22 7.25 19.6495 7.25 16.75V13.91C10.1333 13.4201 12.2446 10.9246 12.25 8V5C12.2453 3.22442 11.069 1.66512 9.363 1.173C9.29609 1.15381 9.24998 1.09261 9.25 1.023V1C9.25 0.447715 8.80229 0 8.25 0C7.69772 0 7.25 0.447715 7.25 1V3.5C7.25 4.05228 7.69772 4.5 8.25 4.5C8.80229 4.5 9.25 4.05228 9.25 3.5C9.24983 3.45467 9.27542 3.41319 9.316 3.393C9.35642 3.37285 9.40472 3.3771 9.441 3.404C9.94863 3.7775 10.2488 4.36977 10.25 5V8C10.25 10.2091 8.45914 12 6.25 12C4.04086 12 2.25 10.2091 2.25 8V5C2.24989 4.36836 2.55024 3.77434 3.059 3.4C3.09528 3.3731 3.14358 3.36885 3.184 3.389C3.22591 3.40981 3.25174 3.45324 3.25 3.5C3.25 4.05228 3.69772 4.5 4.25 4.5C4.80228 4.5 5.25 4.05228 5.25 3.5V1C5.25 0.447715 4.80228 0 4.25 0C3.69772 0 3.25 0.447715 3.25 1V1.023C3.25036 1.09272 3.20412 1.15411 3.137 1.173C1.43098 1.66512 0.25468 3.22442 0.25 5V8C0.25543 10.9246 2.3667 13.4201 5.25 13.91V16.75C5.25 20.7541 8.49594 24 12.5 24C16.5041 24 19.75 20.7541 19.75 16.75V15.729C19.7505 15.5886 19.692 15.4544 19.5887 15.3593C19.4854 15.2642 19.3469 15.2169 19.207 15.229V15.23Z" fill="#52BAD5"/>
<path fill-rule="evenodd" clip-rule="evenodd" d="M13.75 9.25C13.75 6.48858 15.9886 4.25 18.75 4.25C21.5101 4.25331 23.7467 6.48995 23.75 9.25C23.75 12.0114 21.5114 14.25 18.75 14.25C15.9886 14.25 13.75 12.0114 13.75 9.25ZM15.75 9.25C15.75 10.9069 17.0931 12.25 18.75 12.25C19.5456 12.25 20.3087 11.9339 20.8713 11.3713C21.4339 10.8087 21.75 10.0456 21.75 9.25C21.75 7.59315 20.4069 6.25 18.75 6.25C17.0931 6.25 15.75 7.59315 15.75 9.25Z" fill="#52BAD5"/>
<path d="M18.75 10.75C19.5784 10.75 20.25 10.0784 20.25 9.25C20.25 8.42157 19.5784 7.75 18.75 7.75C17.9216 7.75 17.25 8.42157 17.25 9.25C17.25 10.0784 17.9216 10.75 18.75 10.75Z" fill="#52BAD5"/>
</svg>
