<svg width="19" height="24" viewBox="0 0 19 24" fill="none" xmlns="http://www.w3.org/2000/svg">
<path d="M12.0012 18.239H6.00116C5.72502 18.239 5.50116 18.4629 5.50116 18.739V19.179C5.50116 19.4552 5.72502 19.679 6.00116 19.679H12.0012C12.2773 19.679 12.5012 19.4552 12.5012 19.179V18.739C12.5012 18.4629 12.2773 18.239 12.0012 18.239Z" fill="#52BAD5"/>
<path d="M11.2222 21.12H6.78116C6.58406 21.12 6.40535 21.2311 6.3248 21.4038C6.24425 21.5765 6.27689 21.7785 6.40816 21.9197C6.83737 22.3739 7.38848 22.706 8.00116 22.8797V23.04C8.00116 23.5702 8.44888 24 9.00116 24C9.55345 24 10.0012 23.5702 10.0012 23.04V22.8816C10.6143 22.7084 11.1659 22.3762 11.5952 21.9216C11.7262 21.7804 11.7587 21.5786 11.6782 21.4061C11.5984 21.2326 11.4197 21.1205 11.2222 21.12Z" fill="#52BAD5"/>
<path d="M5.25116 8.87903C4.69888 8.87903 4.25116 9.30884 4.25116 9.83903C4.25116 10.3692 4.69888 10.799 5.25116 10.799H6.00016C6.06655 10.7993 6.13029 10.7741 6.17723 10.729C6.22417 10.684 6.25043 10.6228 6.25016 10.559V9.83903C6.25016 9.30921 5.80305 8.87956 5.25116 8.87903Z" fill="#52BAD5"/>
<path d="M9.75115 16.8C10.0273 16.8 10.2512 16.5851 10.2512 16.32V12.48C10.2512 12.3474 10.1392 12.24 10.0012 12.24H8.00015C7.86208 12.24 7.75015 12.3474 7.75015 12.48V16.32C7.75015 16.5851 7.97401 16.8 8.25015 16.8H9.75115Z" fill="#52BAD5"/>
<path d="M17.8552 8.02271C17.1513 4.31336 14.0231 1.47054 10.1264 0.998998C6.22979 0.527455 2.4646 2.5361 0.82385 5.96172C-0.8169 9.38734 0.0457363 13.4388 2.95515 15.9715C3.59073 16.513 4.41346 16.8079 5.26315 16.799H5.74715C6.02329 16.799 6.24715 16.5841 6.24715 16.319V12.48C6.24715 12.3474 6.13522 12.24 5.99715 12.24H5.24715C3.86644 12.24 2.74715 11.1655 2.74715 9.83999C2.74715 8.51451 3.86644 7.43999 5.24715 7.43999C6.62786 7.43999 7.74715 8.51451 7.74715 9.83999V10.56C7.74688 10.6237 7.77314 10.6849 7.82008 10.73C7.86702 10.775 7.93076 10.8002 7.99715 10.8H9.99715C10.0635 10.8002 10.1273 10.775 10.1742 10.73C10.2212 10.6849 10.2474 10.6237 10.2471 10.56V9.83999C10.2471 8.51451 11.3664 7.43999 12.7471 7.43999C14.1279 7.43999 15.2471 8.51451 15.2471 9.83999C15.2471 11.1655 14.1279 12.24 12.7471 12.24H12.0001C11.8621 12.24 11.7501 12.3474 11.7501 12.48V16.32C11.7501 16.5851 11.974 16.8 12.2501 16.8H12.7341C13.5843 16.8089 14.4075 16.5135 15.0431 15.9715C17.3527 13.9692 18.4169 10.9612 17.8552 8.02271Z" fill="#52BAD5"/>
<path d="M12.0002 10.799H12.7502C13.3024 10.799 13.7502 10.3692 13.7502 9.83903C13.7502 9.30884 13.3024 8.87903 12.7502 8.87903C12.1979 8.87903 11.7502 9.30884 11.7502 9.83903V10.56C11.7502 10.6236 11.7765 10.6845 11.8234 10.7294C11.8703 10.7742 11.9339 10.7993 12.0002 10.799Z" fill="#52BAD5"/>
</svg>
