<svg width="16" height="24" viewBox="0 0 16 24" fill="none" xmlns="http://www.w3.org/2000/svg">
<path d="M13 0.0339966H3C1.34315 0.0339966 0 1.37714 0 3.034V20.966C0 22.6229 1.34315 23.966 3 23.966H13C14.6569 23.966 16 22.6229 16 20.966V3.034C16 1.37714 14.6569 0.0339966 13 0.0339966ZM8 22.466C7.44772 22.466 7 22.0183 7 21.466C7 20.9137 7.44772 20.466 8 20.466C8.55228 20.466 9 20.9137 9 21.466C9 22.0183 8.55228 22.466 8 22.466ZM14 17.966C14 18.5183 13.5523 18.966 13 18.966H3C2.44772 18.966 2 18.5183 2 17.966V3.534C2 2.98171 2.44772 2.534 3 2.534H13C13.5523 2.534 14 2.98171 14 3.534V17.966Z" fill="#52BAD5"/>
</svg>
