<svg width="142" height="48" viewBox="0 0 142 48" fill="none" xmlns="http://www.w3.org/2000/svg">
<path d="M29.7886 36.795C29.7886 39.9875 27.2176 42.34 24.0625 42.34C20.9074 42.34 18.3364 39.9875 18.3364 36.795C18.3364 33.58 20.9074 31.25 24.0625 31.25C27.2176 31.25 29.7886 33.58 29.7886 36.795ZM27.282 36.795C27.282 34.8 25.7919 33.435 24.0625 33.435C22.3331 33.435 20.843 34.8 20.843 36.795C20.843 38.77 22.3331 40.155 24.0625 40.155C25.7919 40.155 27.282 38.7675 27.282 36.795Z" fill="#EA4335"/>
<path d="M42.1415 36.795C42.1415 39.9875 39.5706 42.34 36.4154 42.34C33.2603 42.34 30.6893 39.9875 30.6893 36.795C30.6893 33.5825 33.2603 31.25 36.4154 31.25C39.5706 31.25 42.1415 33.58 42.1415 36.795ZM39.6349 36.795C39.6349 34.8 38.1448 33.435 36.4154 33.435C34.686 33.435 33.1959 34.8 33.1959 36.795C33.1959 38.77 34.686 40.155 36.4154 40.155C38.1448 40.155 39.6349 38.7675 39.6349 36.795Z" fill="#FBBC05"/>
<path d="M53.9798 31.585V41.54C53.9798 45.635 51.4938 47.3075 48.5548 47.3075C45.7882 47.3075 44.1232 45.51 43.4952 44.04L45.6776 43.1575C46.0662 44.06 47.0184 45.125 48.5522 45.125C50.4335 45.125 51.5993 43.9975 51.5993 41.875V41.0775H51.5118C50.9507 41.75 49.8699 42.3375 48.5059 42.3375C45.6518 42.3375 43.0371 39.9225 43.0371 36.815C43.0371 33.685 45.6518 31.25 48.5059 31.25C49.8673 31.25 50.9482 31.8375 51.5118 32.49H51.5993V31.5875H53.9798V31.585ZM51.7768 36.815C51.7768 34.8625 50.436 33.435 48.7298 33.435C47.0004 33.435 45.5515 34.8625 45.5515 36.815C45.5515 38.7475 47.0004 40.155 48.7298 40.155C50.436 40.155 51.7768 38.7475 51.7768 36.815Z" fill="#4285F4"/>
<path d="M57.9044 25.75V42H55.4596V25.75H57.9044Z" fill="#34A853"/>
<path d="M67.4316 38.6201L69.3772 39.8801C68.7492 40.7826 67.236 42.3376 64.6213 42.3376C61.3787 42.3376 58.957 39.9026 58.957 36.7926C58.957 33.4951 61.3992 31.2476 64.3408 31.2476C67.3029 31.2476 68.7518 33.5376 69.2253 34.7751L69.4853 35.4051L61.8548 38.4751C62.439 39.5876 63.3474 40.1551 64.6213 40.1551C65.8978 40.1551 66.7831 39.5451 67.4316 38.6201ZM61.443 36.6251L66.5437 34.5676C66.2632 33.8751 65.4191 33.3926 64.4257 33.3926C63.1518 33.3926 61.3787 34.4851 61.443 36.6251Z" fill="#EA4335"/>
<path d="M9.08199 35.3524V32.9999H17.2426C17.3224 33.4099 17.3636 33.8949 17.3636 34.4199C17.3636 36.1849 16.8669 38.3674 15.2662 39.9224C13.7092 41.4974 11.7199 42.3374 9.08456 42.3374C4.2 42.3374 0.0926514 38.4724 0.0926514 33.7274C0.0926514 28.9824 4.2 25.1174 9.08456 25.1174C11.7868 25.1174 13.7118 26.1474 15.1581 27.4899L13.4493 29.1499C12.4121 28.2049 11.007 27.4699 9.08199 27.4699C5.51508 27.4699 2.72537 30.2624 2.72537 33.7274C2.72537 37.1924 5.51508 39.9849 9.08199 39.9849C11.3956 39.9849 12.7132 39.0824 13.5574 38.2624C14.2419 37.5974 14.6923 36.6474 14.8699 35.3499L9.08199 35.3524Z" fill="#4285F4"/>
<path fill-rule="evenodd" clip-rule="evenodd" d="M9.51446 15.5289L3.6342 19.7736L5.70867 12.6606L0 8.17102L7.16235 8.01961L9.51446 1.00024L11.8666 8.01961L19.0289 8.17102L13.3202 12.6606L15.3947 19.7736L9.51446 15.5289Z" fill="#ED7100"/>
<path fill-rule="evenodd" clip-rule="evenodd" d="M52.092 15.5289L46.2117 19.7736L48.2862 12.6606L42.5775 8.17102L49.7399 8.01961L52.092 1.00024L54.4441 8.01961L61.6064 8.17102L55.8978 12.6606L57.9722 19.7736L52.092 15.5289Z" fill="#ED7100"/>
<path fill-rule="evenodd" clip-rule="evenodd" d="M30.803 15.5289L24.9228 19.7736L26.9972 12.6606L21.2886 8.17102L28.4509 8.01961L30.803 1.00024L33.1551 8.01961L40.3175 8.17102L34.6088 12.6606L36.6833 19.7736L30.803 15.5289Z" fill="#ED7100"/>
<path fill-rule="evenodd" clip-rule="evenodd" d="M73.3805 15.5289L67.5003 19.7736L69.5748 12.6606L63.8661 8.17102L71.0284 8.01961L73.3805 1.00024L75.7326 8.01961L82.895 8.17102L77.1863 12.6606L79.2608 19.7736L73.3805 15.5289Z" fill="#ED7100"/>
<path fill-rule="evenodd" clip-rule="evenodd" d="M94.6693 15.5289L88.789 19.7736L90.8635 12.6606L85.1548 8.17102L92.3172 8.01961L94.6693 1.00024L97.0214 8.01961L104.184 8.17102L98.4751 12.6606L100.55 19.7736L94.6693 15.5289Z" fill="url(#paint0_linear)"/>
<path d="M123.459 15.9534H121.857V19.0002H119.133V15.9534H113.527V13.5217L118.732 4.92798H121.857V13.7756H123.459V15.9534ZM119.133 13.7756V7.66235L115.588 13.7756H119.133ZM125.533 16.0901H128.492V19.0002H125.533V16.0901ZM133.417 14.8889C133.417 15.5855 133.596 16.1259 133.954 16.51C134.319 16.8941 134.82 17.0862 135.458 17.0862C136.096 17.0862 136.594 16.8941 136.952 16.51C137.317 16.1259 137.499 15.5855 137.499 14.8889C137.499 14.1663 137.314 13.6194 136.943 13.2483C136.578 12.8707 136.083 12.6819 135.458 12.6819C134.833 12.6819 134.335 12.8707 133.964 13.2483C133.599 13.6194 133.417 14.1663 133.417 14.8889ZM130.527 15.0745C130.527 14.2802 130.706 13.5608 131.064 12.9163C131.428 12.2717 131.959 11.7867 132.655 11.4612C131.972 11.0055 131.526 10.5139 131.318 9.98657C131.116 9.45272 131.015 8.95467 131.015 8.49243C131.015 7.46379 131.402 6.58813 132.177 5.86548C132.952 5.13631 134.045 4.77173 135.458 4.77173C136.871 4.77173 137.965 5.13631 138.739 5.86548C139.514 6.58813 139.902 7.46379 139.902 8.49243C139.902 8.95467 139.797 9.45272 139.589 9.98657C139.387 10.5139 138.945 10.9729 138.261 11.3635C138.958 11.7542 139.482 12.2717 139.833 12.9163C140.185 13.5608 140.361 14.2802 140.361 15.0745C140.361 16.2659 139.918 17.2815 139.032 18.1213C138.154 18.9547 136.923 19.3713 135.341 19.3713C133.759 19.3713 132.561 18.9547 131.747 18.1213C130.933 17.2815 130.527 16.2659 130.527 15.0745ZM133.671 8.80493C133.671 9.31925 133.827 9.73918 134.14 10.0647C134.459 10.3902 134.898 10.553 135.458 10.553C136.025 10.553 136.461 10.3902 136.767 10.0647C137.079 9.73918 137.236 9.31925 137.236 8.80493C137.236 8.24504 137.079 7.80884 136.767 7.49634C136.461 7.17733 136.025 7.01782 135.458 7.01782C134.898 7.01782 134.459 7.17733 134.14 7.49634C133.827 7.80884 133.671 8.24504 133.671 8.80493Z" fill="#F98406"/>
<defs>
<linearGradient id="paint0_linear" x1="95" y1="9" x2="103" y2="9" gradientUnits="userSpaceOnUse">
<stop stop-color="#ED7100"/>
<stop offset="0.0001" stop-color="#E6E6E6"/>
</linearGradient>
</defs>
</svg>
