<svg width="24" height="24" viewBox="0 0 24 24" fill="none" xmlns="http://www.w3.org/2000/svg">
<path d="M3 21.12H11C11.5523 21.12 12 20.6902 12 20.16V18.72C12 17.9247 11.3284 17.28 10.5 17.28H3.5C2.67157 17.28 2 17.9247 2 18.72V20.16C2 20.6902 2.44772 21.12 3 21.12Z" fill="#52BAD5"/>
<path d="M22.9998 18.24C23.3168 17.9464 23.4959 17.5416 23.4959 17.1187C23.4959 16.6958 23.3168 16.2911 22.9998 15.9974L16.1858 10.1098C16.1351 10.0657 16.1054 10.0035 16.1037 9.93785C16.102 9.87218 16.1284 9.80871 16.1768 9.76224L17.9398 8.0688C18.0278 7.98429 18.1673 7.97488 18.2668 8.04672C18.8968 8.49937 19.7842 8.4076 20.2994 7.83652C20.8146 7.26543 20.7824 6.40922 20.2258 5.8752L15.5448 1.38144C14.9892 0.841361 14.0923 0.808011 13.4949 1.30522C12.8975 1.80243 12.8047 2.65945 13.2828 3.264C13.3575 3.35923 13.3477 3.49274 13.2598 3.57696L7.72477 8.88864C7.63677 8.97305 7.49766 8.98285 7.39777 8.91168C6.76777 8.46213 5.88329 8.5549 5.36927 9.12443C4.85525 9.69396 4.88555 10.5476 5.43877 11.0822L10.1198 15.576C10.676 16.1104 11.5679 16.1412 12.1628 15.6467C12.7577 15.1521 12.8533 14.3002 12.3818 13.6954C12.3073 13.5999 12.3176 13.4664 12.4058 13.3824L14.1688 11.689C14.2173 11.6423 14.2838 11.617 14.3524 11.6188C14.4211 11.6206 14.4859 11.6494 14.5318 11.6986L20.6668 18.24C20.9727 18.5432 21.3936 18.7143 21.8333 18.7143C22.273 18.7143 22.6939 18.5432 22.9998 18.24Z" fill="#52BAD5"/>
<path d="M12.5 22.08H1.5C0.947715 22.08 0.5 22.5098 0.5 23.04C0.5 23.5702 0.947715 24 1.5 24H12.5C13.0523 24 13.5 23.5702 13.5 23.04C13.5 22.5098 13.0523 22.08 12.5 22.08Z" fill="#52BAD5"/>
</svg>
