<svg width="28" height="28" viewBox="0 0 28 28" fill="none" xmlns="http://www.w3.org/2000/svg">
<path d="M14 0C6.26801 0 0 6.26801 0 14C0 21.732 6.26801 28 14 28C21.732 28 28 21.732 28 14C28 6.26801 21.732 0 14 0ZM10.0573 21.0636H7.24135V11.2336H10.0572L10.0573 21.0636ZM8.6771 10.1126C7.7326 10.1126 6.96423 9.40017 6.96423 8.5245C6.96423 7.64883 7.7327 6.93634 8.6771 6.93634C9.62151 6.93634 10.39 7.64883 10.39 8.5245C10.39 9.40017 9.62151 10.1126 8.6771 10.1126ZM21.0358 21.0636H18.1506V15.2337C18.1512 15.2219 18.1934 14.2964 17.6686 13.7435C17.4074 13.4683 17.0476 13.3287 16.5991 13.3287C15.4708 13.3287 14.9009 14.1411 14.6594 14.6331V21.0636H11.8435V11.2336H14.6593V12.0641C15.5811 11.3163 16.6163 10.9218 17.6595 10.9218C20.3301 10.9218 21.0358 13.0079 21.0358 14.1109V21.0636Z" fill="#999999"/>
</svg>
