<svg width="24" height="20" viewBox="0 0 24 20" fill="none" xmlns="http://www.w3.org/2000/svg">
<path fill-rule="evenodd" clip-rule="evenodd" d="M22.174 7.818C22.1635 7.8944 22.1886 7.97141 22.242 8.027C23.048 8.85693 23.4992 9.96809 23.5 11.125V13.125C23.4967 14.1508 22.8653 15.0699 21.909 15.441C21.8133 15.4787 21.7502 15.5711 21.75 15.674V17.621C21.75 18.8636 20.7427 19.871 19.5 19.871C18.2574 19.871 17.25 18.8636 17.25 17.621V15.871C17.25 15.7329 17.1381 15.621 17 15.621H7.00001C6.86194 15.621 6.75001 15.7329 6.75001 15.871V17.621C6.75001 18.8636 5.74265 19.871 4.50001 19.871C3.25737 19.871 2.25001 18.8636 2.25001 17.621V15.67C2.24979 15.5671 2.18677 15.4747 2.09101 15.437C1.1347 15.0659 0.503345 14.1468 0.50001 13.121V11.121C0.501541 9.96658 0.951533 8.85792 1.75501 8.029C1.80846 7.97341 1.83352 7.8964 1.82301 7.82C1.81214 7.74392 1.76675 7.67712 1.70001 7.639L0.90001 7.176C0.18204 6.76179 -0.0642036 5.84397 0.35001 5.126C0.764224 4.40803 1.68204 4.16179 2.40001 4.576L3.46301 5.191C3.5342 5.23168 3.62077 5.23502 3.69488 5.19996C3.769 5.16489 3.82131 5.09584 3.83501 5.015L4.23501 2.632C4.47166 1.18266 5.72548 0.119517 7.19401 0.122999H16.802C18.2699 0.119358 19.5235 1.18146 19.761 2.63L20.161 5.013C20.1744 5.09379 20.2265 5.1629 20.3005 5.198C20.3745 5.2331 20.461 5.22974 20.532 5.189L21.597 4.574C22.0615 4.30605 22.6336 4.30623 23.0978 4.57448C23.5621 4.84273 23.848 5.33828 23.8478 5.87448C23.8477 6.41068 23.5615 6.90605 23.097 7.174L22.297 7.637C22.2303 7.67512 22.1849 7.74192 22.174 7.818ZM16.806 2.125H7.19401C6.70615 2.12498 6.28948 2.47699 6.20801 2.958L5.72901 5.831C5.71695 5.90354 5.73744 5.97771 5.78503 6.03378C5.83261 6.08984 5.90247 6.12211 5.97601 6.122H18.024C18.0975 6.12217 18.1674 6.08999 18.215 6.034C18.2614 5.97842 18.2818 5.90561 18.271 5.834L17.792 2.961C17.7118 2.4788 17.2948 2.12522 16.806 2.125ZM19.5 13.125C18.6716 13.125 18 12.4534 18 11.625C18 10.7966 18.6716 10.125 19.5 10.125C20.3284 10.125 21 10.7966 21 11.625C21 12.4534 20.3284 13.125 19.5 13.125ZM4.50001 10.125C3.67158 10.125 3.00001 10.7966 3.00001 11.625C3.00001 12.0228 3.15805 12.4044 3.43935 12.6857C3.72065 12.967 4.10219 13.125 4.50001 13.125C5.32844 13.125 6.00001 12.4534 6.00001 11.625C6.00001 10.7966 5.32844 10.125 4.50001 10.125Z" fill="#52BAD5"/>
</svg>
