<svg width="24" height="24" viewBox="0 0 24 24" fill="none" xmlns="http://www.w3.org/2000/svg">
<path d="M12 0C5.37258 0 0 5.37258 0 12C0 18.6274 5.37258 24 12 24C18.6274 24 24 18.6274 24 12C23.9928 5.37555 18.6244 0.00716485 12 0ZM8.5 12C8.5 13.1046 7.60457 14 6.5 14C5.39543 14 4.5 13.1046 4.5 12C4.5 10.8954 5.39543 10 6.5 10C7.60457 10 8.5 10.8954 8.5 12ZM12 10C13.1046 10 14 10.8954 14 12C14 13.1046 13.1046 14 12 14C10.8954 14 10 13.1046 10 12C10 10.8954 10.8954 10 12 10ZM17.5 14C16.3954 14 15.5 13.1046 15.5 12C15.5 10.8954 16.3954 10 17.5 10C18.6046 10 19.5 10.8954 19.5 12C19.5 13.1046 18.6046 14 17.5 14Z" fill="#52BAD5"/>
</svg>
