<svg width="24" height="22" viewBox="0 0 24 22" fill="none" xmlns="http://www.w3.org/2000/svg">
<path fill-rule="evenodd" clip-rule="evenodd" d="M24 8.375C24 6.442 22.433 4.875 20.5 4.875H17.75C17.4739 4.875 17.25 4.65114 17.25 4.375V3.375C17.2467 1.58144 15.7936 0.128302 14 0.125H10C8.20644 0.128302 6.7533 1.58144 6.75 3.375V4.375C6.75 4.65114 6.52614 4.875 6.25 4.875H3.5C1.567 4.875 0 6.442 0 8.375V18.375C0 20.308 1.567 21.875 3.5 21.875H20.5C22.433 21.875 24 20.308 24 18.375V8.375ZM9.25 3.375C9.25273 2.96192 9.58692 2.62773 10 2.625H14C14.4131 2.62773 14.7473 2.96192 14.75 3.375V4.375C14.75 4.65114 14.5261 4.875 14.25 4.875H9.75C9.47386 4.875 9.25 4.65114 9.25 4.375V3.375ZM17.36 14.265L16.77 13.785C16.6503 13.6954 16.5798 13.5545 16.58 13.405C16.5787 13.2568 16.6405 13.115 16.75 13.015L17.36 12.495C17.4488 12.4179 17.5624 12.3753 17.68 12.375H18.993C19.1801 12.37 19.3492 12.2623 19.4328 12.0949C19.5165 11.9275 19.5012 11.7277 19.393 11.575C18.7665 10.7343 17.7444 10.2844 16.7013 10.3901C15.6581 10.4958 14.7471 11.1417 14.302 12.091C14.2189 12.2646 14.0435 12.375 13.851 12.375H10.151C9.95854 12.375 9.78314 12.2646 9.7 12.091C9.20552 11.0468 8.15535 10.3794 7 10.375C6.09017 10.4101 5.24178 10.8435 4.68 11.56C4.55515 11.7099 4.52885 11.9186 4.61263 12.0948C4.6964 12.2709 4.87496 12.3823 5.07 12.38H6.32C6.43761 12.3803 6.55119 12.4229 6.64 12.5L7.25 13.02C7.35948 13.12 7.42128 13.2618 7.42 13.41C7.42016 13.5595 7.34973 13.7004 7.23 13.79L6.64 14.27C6.54869 14.3415 6.43599 14.3803 6.32 14.38H5.07C4.87496 14.3777 4.6964 14.4891 4.61263 14.6652C4.52885 14.8414 4.55515 15.0501 4.68 15.2C5.24373 15.9128 6.09182 16.3423 7 16.375C8.15426 16.3695 9.20298 15.7022 9.697 14.659C9.78014 14.4854 9.95554 14.375 10.148 14.375H13.848C14.0405 14.375 14.2159 14.4854 14.299 14.659C14.7441 15.6083 15.6551 16.2542 16.6983 16.3599C17.7414 16.4656 18.7635 16.0157 19.39 15.175C19.4982 15.0223 19.5135 14.8225 19.4298 14.6551C19.3462 14.4877 19.1771 14.38 18.99 14.375H17.68C17.564 14.3753 17.4513 14.3365 17.36 14.265Z" fill="#52BAD5"/>
</svg>
