<svg width="18" height="24" viewBox="0 0 18 24" fill="none" xmlns="http://www.w3.org/2000/svg">
<path d="M5.83801 7.99969H11.838C12.3903 7.99969 12.838 7.55198 12.838 6.99969C12.838 6.44741 12.3903 5.99969 11.838 5.99969H5.83801C5.28573 5.99969 4.83801 6.44741 4.83801 6.99969C4.83801 7.55198 5.28573 7.99969 5.83801 7.99969Z" fill="#52BAD5"/>
<path d="M6.30903 4.49971C6.34048 4.7514 6.55539 4.93967 6.80903 4.93771H10.873C11.1267 4.93967 11.3416 4.7514 11.373 4.49971C11.5885 3.41915 11.997 2.38629 12.579 1.45071C12.6827 1.26315 12.6554 1.03037 12.511 0.871972C12.3666 0.713576 12.1374 0.664801 11.941 0.75071L10.079 1.55071C10.0172 1.57705 9.94732 1.57737 9.88523 1.55159C9.82314 1.52581 9.77404 1.47611 9.74903 1.41371L9.30803 0.31371C9.23194 0.124195 9.04825 0 8.84403 0C8.63981 0 8.45612 0.124195 8.38003 0.31371L7.93903 1.41371C7.91402 1.47611 7.86493 1.52581 7.80283 1.55159C7.74074 1.57737 7.67089 1.57705 7.60903 1.55071L5.73803 0.75471C5.54169 0.668801 5.31243 0.717576 5.16807 0.875972C5.0237 1.03437 4.99633 1.26715 5.10003 1.45471C5.68265 2.38886 6.09219 3.42033 6.30903 4.49971Z" fill="#52BAD5"/>
<path fill-rule="evenodd" clip-rule="evenodd" d="M11.919 8.99969C12.048 8.99998 12.1734 9.04248 12.276 9.1207C14.828 11.0707 17.678 14.5227 17.678 17.5177C17.678 21.7497 15.32 23.9997 8.838 23.9997C2.356 23.9997 -0.00199746 21.7497 2.54049e-06 17.5207C2.54049e-06 14.5207 2.849 11.0707 5.4 9.1207C5.50239 9.04208 5.62791 8.99953 5.757 8.99969H11.919ZM9.588 20.3758C9.58796 20.255 9.67423 20.1515 9.793 20.1298C10.7434 19.9581 11.465 19.1775 11.5616 18.2166C11.6581 17.2556 11.1062 16.3471 10.209 15.9898L8.024 15.1168C7.72522 14.9972 7.55337 14.6824 7.61441 14.3665C7.67545 14.0505 7.95221 13.8224 8.274 13.8228H10.426C10.8402 13.8228 11.176 13.487 11.176 13.0728C11.176 12.6585 10.8402 12.3228 10.426 12.3228H9.838C9.69993 12.3228 9.588 12.2108 9.588 12.0728V11.7498C9.588 11.3355 9.25222 10.9998 8.838 10.9998C8.42379 10.9998 8.088 11.3355 8.088 11.7498V12.1238C8.08804 12.2445 8.00178 12.348 7.883 12.3698C6.93262 12.5414 6.21101 13.322 6.11446 14.2829C6.0179 15.2439 6.56977 16.1525 7.467 16.5098L9.652 17.3828C9.95078 17.5023 10.1226 17.8171 10.0616 18.133C10.0006 18.449 9.7238 18.6771 9.402 18.6768H7.25C6.83579 18.6768 6.5 19.0125 6.5 19.4268C6.5 19.841 6.83579 20.1768 7.25 20.1768H7.838C7.97607 20.1768 8.088 20.2887 8.088 20.4268V20.7498C8.088 21.164 8.42379 21.4998 8.838 21.4998C9.25222 21.4998 9.588 21.164 9.588 20.7498V20.3758Z" fill="#52BAD5"/>
</svg>
