<svg width="113" height="50" viewBox="0 0 113 50" fill="none" xmlns="http://www.w3.org/2000/svg">
<path fill-rule="evenodd" clip-rule="evenodd" d="M86.8434 9.81958H89.0747V11.8476H86.8434V9.81958ZM29.3921 9.81967H40.7165V11.8477H36.2638V23.2482H33.8153V11.8477H29.3823V9.81967H29.3921ZM40.2325 13.5246H42.3256V15.401H42.365C42.4342 15.1356 42.5625 14.8797 42.7501 14.6333C42.9377 14.3869 43.1648 14.15 43.4313 13.951C43.6979 13.7425 43.9941 13.5814 44.3199 13.4487C44.6457 13.3255 44.9814 13.2592 45.3171 13.2592C45.5738 13.2592 45.7614 13.2687 45.8601 13.2782C45.9061 13.2826 45.9521 13.2891 45.9991 13.2957C46.053 13.3032 46.1082 13.311 46.1662 13.3161V15.382C46.0082 15.3536 45.8502 15.3346 45.6824 15.3157C45.5146 15.2967 45.3566 15.2872 45.1986 15.2872C44.8234 15.2872 44.468 15.363 44.1323 15.5052C43.7966 15.6473 43.5103 15.8653 43.2635 16.1401C43.0167 16.4244 42.8192 16.7656 42.6711 17.1826C42.523 17.5996 42.4539 18.0734 42.4539 18.6136V23.2382H40.2226V13.5246H40.2325ZM54.2328 23.2471H56.4246V13.5335H54.1933V19.1721C54.1933 19.5512 54.1538 19.9019 54.0649 20.2241C53.9761 20.5463 53.8378 20.8306 53.6404 21.058C53.4528 21.2949 53.1961 21.475 52.8802 21.6171C52.5642 21.7593 52.1792 21.8256 51.7053 21.8256C51.0931 21.8256 50.6094 21.6456 50.2737 21.2949C49.9281 20.9443 49.7603 20.3378 49.7603 19.4849V13.524H47.529V19.6934C47.529 20.9727 47.8251 21.9299 48.4175 22.5648C49.0099 23.1998 49.9775 23.5125 51.3103 23.5125C51.8731 23.5125 52.426 23.3609 52.969 23.0671C53.512 22.7733 53.9168 22.3848 54.1933 21.892H54.2328V23.2471ZM60.2256 20.1309C60.2948 20.7563 60.5416 21.1923 60.9661 21.4481C61.4005 21.6945 61.9139 21.8272 62.5162 21.8272C62.7235 21.8272 62.9605 21.8082 63.2271 21.7798C63.4936 21.7514 63.7503 21.685 63.9774 21.5998C64.2144 21.5145 64.402 21.3818 64.5599 21.2112C64.708 21.0406 64.7771 20.8227 64.7673 20.5478C64.7574 20.273 64.6488 20.0456 64.4513 19.875C64.2539 19.6949 64.007 19.5623 63.701 19.4485C63.3949 19.3443 63.0493 19.2495 62.6544 19.1737C62.331 19.1116 62.0076 19.0432 61.6787 18.9736L61.6786 18.9736L61.6784 18.9735L61.4598 18.9273C61.0451 18.842 60.6403 18.7283 60.2553 18.6051C59.8702 18.4819 59.5247 18.3113 59.2186 18.0934C58.9125 17.8849 58.6657 17.61 58.488 17.2784C58.3004 16.9467 58.2115 16.5392 58.2115 16.0464C58.2115 15.5157 58.3498 15.0798 58.6163 14.7196C58.8829 14.3595 59.2285 14.0752 59.6333 13.8573C60.0479 13.6393 60.5021 13.4877 61.0056 13.3929C61.5091 13.3076 61.9929 13.2602 62.4471 13.2602C62.9704 13.2602 63.4739 13.3171 63.9478 13.4213C64.4217 13.5256 64.8561 13.6962 65.2412 13.9426C65.6262 14.1795 65.9422 14.4922 66.1989 14.8713C66.4556 15.2503 66.6135 15.7147 66.6826 16.2549H64.3526C64.244 15.7431 64.007 15.3925 63.622 15.2219C63.2369 15.0419 62.7926 14.9566 62.299 14.9566C62.141 14.9566 61.9534 14.966 61.7362 14.9945C61.519 15.0229 61.3216 15.0703 61.1241 15.1366C60.9365 15.203 60.7785 15.3072 60.6403 15.4399C60.512 15.5726 60.4429 15.7431 60.4429 15.9611C60.4429 16.2264 60.5416 16.4349 60.7292 16.596C60.9168 16.7571 61.1636 16.8898 61.4697 17.0035C61.7757 17.1078 62.1213 17.2026 62.5162 17.2784C62.8258 17.3378 63.1416 17.4031 63.4633 17.4696L63.4637 17.4697L63.464 17.4697L63.7306 17.5248C64.1354 17.61 64.5303 17.7238 64.9252 17.847C65.3201 17.9702 65.6657 18.1407 65.9718 18.3587C66.2778 18.5767 66.5247 18.842 66.7122 19.1642C66.8998 19.4864 66.9986 19.8939 66.9986 20.3678C66.9986 20.9459 66.8603 21.4292 66.5839 21.8367C66.3075 22.2347 65.952 22.5664 65.5176 22.8128C65.0832 23.0592 64.5895 23.2487 64.0564 23.3624C63.5233 23.4761 62.9901 23.533 62.4668 23.533C61.8251 23.533 61.2327 23.4667 60.6897 23.3245C60.1467 23.1824 59.6728 22.9739 59.2778 22.699C58.8829 22.4147 58.567 22.0641 58.3399 21.6471C58.1128 21.2302 57.9943 20.7279 57.9746 20.1498H60.2256V20.1309ZM69.279 13.524H67.6105V15.1445H69.2988V20.8779C69.3087 21.2759 69.358 21.6361 69.4271 21.9488C69.5061 22.2615 69.6345 22.5174 69.8418 22.7259C70.0393 22.9344 70.3256 23.0955 70.681 23.1997C71.0364 23.304 71.5103 23.3608 72.1027 23.3608C72.3496 23.3608 72.5865 23.3513 72.8235 23.3229C72.9475 23.3074 73.0774 23.2947 73.2099 23.2817L73.21 23.2817C73.3202 23.271 73.4322 23.26 73.5442 23.2471V21.5887C73.3862 21.6266 73.2283 21.6455 73.0703 21.655C72.9123 21.6645 72.7543 21.6645 72.5964 21.6645C72.3397 21.6645 72.1521 21.6361 72.004 21.5792C71.8559 21.5223 71.7473 21.4371 71.6782 21.3233C71.6091 21.2096 71.5597 21.0675 71.54 20.9064C71.5202 20.7358 71.5103 20.5462 71.5103 20.3188V15.1256H73.5244V13.524H71.5103V10.6052H69.279V13.524ZM75.1041 13.5246H77.2169V14.8418H77.2564C77.5723 14.2732 78.0068 13.8752 78.5695 13.6288C79.1323 13.3824 79.7345 13.2592 80.396 13.2592C81.1958 13.2592 81.8869 13.3919 82.4793 13.6667C83.0716 13.9321 83.5653 14.3017 83.9602 14.7755C84.3551 15.2493 84.6415 15.799 84.8389 16.4244C85.0364 17.0499 85.1351 17.7227 85.1351 18.4335C85.1351 19.0874 85.0462 19.7223 84.8685 20.3288C84.6908 20.9448 84.4242 21.485 84.0688 21.9588C83.7134 22.4327 83.2592 22.8023 82.7063 23.0866C82.1534 23.3709 81.5117 23.513 80.7613 23.513C80.4355 23.513 80.1097 23.4846 79.7839 23.4277C79.4581 23.3709 79.1422 23.2761 78.846 23.1529C78.5498 23.0297 78.2635 22.8686 78.0166 22.6696C77.7599 22.4706 77.5526 22.2431 77.3749 21.9873H77.3354V26.8394H75.1041V13.5246ZM82.7264 17.1169C82.8448 17.5339 82.9041 17.9603 82.9041 18.3963C82.9041 18.8227 82.8547 19.2397 82.7659 19.6472C82.6671 20.0547 82.4993 20.4148 82.2722 20.737C82.0451 21.0497 81.7588 21.3151 81.4034 21.5141C81.0479 21.7131 80.6234 21.8174 80.11 21.8174C79.6558 21.8174 79.251 21.7321 78.9055 21.552C78.5599 21.3814 78.2637 21.1445 78.0169 20.8413C77.7602 20.538 77.5825 20.1779 77.4541 19.7609C77.3258 19.3439 77.2666 18.889 77.2666 18.3963C77.2666 17.3538 77.5035 16.5199 77.9774 15.8944C78.4513 15.2689 79.1622 14.9562 80.1001 14.9562C80.5543 14.9562 80.9591 15.0605 81.3145 15.25C81.6601 15.4395 81.9563 15.6954 82.1932 16.0176C82.4302 16.3398 82.6079 16.6999 82.7264 17.1169ZM89.0747 13.525H86.8434V23.2482H89.0747V13.525ZM91.069 9.81958H93.3003V23.2481H91.069V9.81958ZM97.9801 23.1255C98.612 23.3814 99.3327 23.514 100.142 23.514C100.952 23.514 101.673 23.3814 102.305 23.1255C102.936 22.8696 103.479 22.519 103.914 22.0641C104.348 21.6092 104.684 21.0691 104.911 20.4436C105.138 19.8181 105.257 19.1263 105.257 18.3777C105.257 17.6385 105.138 16.9562 104.911 16.3307C104.684 15.7052 104.348 15.1651 103.914 14.7102C103.47 14.2648 102.936 13.9047 102.305 13.6488C101.673 13.3929 100.952 13.2602 100.142 13.2602C99.3327 13.2602 98.612 13.3929 97.9801 13.6488C97.3482 13.9047 96.8052 14.2553 96.3708 14.7102C95.9364 15.1651 95.6007 15.7052 95.3736 16.3307C95.1465 16.9562 95.0281 17.6385 95.0281 18.3777C95.0281 19.1263 95.1465 19.8181 95.3736 20.4436C95.6007 21.0691 95.9364 21.6092 96.3708 22.0641C96.8151 22.5095 97.3482 22.8696 97.9801 23.1255ZM100.142 21.8174C100.636 21.8174 101.07 21.7131 101.436 21.5141C101.801 21.3151 102.097 21.0497 102.334 20.7275C102.571 20.4053 102.739 20.0357 102.857 19.6282C102.966 19.2207 103.025 18.8038 103.025 18.3773C103.025 17.9603 102.966 17.5528 102.857 17.1359C102.749 16.7189 102.571 16.3588 102.334 16.0366C102.097 15.7143 101.801 15.4585 101.436 15.2595C101.07 15.0605 100.636 14.9562 100.142 14.9562C99.6487 14.9562 99.2143 15.0605 98.849 15.2595C98.4837 15.4585 98.1875 15.7238 97.9506 16.0366C97.7136 16.3588 97.5458 16.7189 97.4273 17.1359C97.3187 17.5528 97.2594 17.9603 97.2594 18.3773C97.2594 18.8038 97.3187 19.2207 97.4273 19.6282C97.5359 20.0357 97.7136 20.4053 97.9506 20.7275C98.1875 21.0497 98.4837 21.3151 98.849 21.5141C99.2143 21.7226 99.6487 21.8174 100.142 21.8174ZM107.597 13.524H105.928V15.1445H107.616V20.8779C107.626 21.2759 107.676 21.6361 107.745 21.9488C107.824 22.2615 107.952 22.5174 108.159 22.7259C108.357 22.9344 108.643 23.0955 108.999 23.1997C109.354 23.304 109.828 23.3608 110.42 23.3608C110.667 23.3608 110.904 23.3513 111.141 23.3229C111.265 23.3074 111.395 23.2947 111.528 23.2817C111.638 23.271 111.75 23.26 111.862 23.2471V21.5887C111.704 21.6266 111.546 21.6455 111.388 21.655C111.23 21.6645 111.072 21.6645 110.914 21.6645C110.657 21.6645 110.47 21.6361 110.322 21.5792C110.173 21.5223 110.065 21.4371 109.996 21.3233C109.927 21.2096 109.877 21.0675 109.857 20.9064C109.838 20.7358 109.828 20.5462 109.828 20.3188V15.1256H111.842V13.524H109.828V10.6052H107.597V13.524Z" fill="#191919"/>
<path d="M26.7856 9.8194H16.5571L13.3977 0.475342L10.2285 9.8194L0 9.80992L8.2835 15.5907L5.11425 24.9253L13.3977 19.154L21.6714 24.9253L18.512 15.5907L26.7856 9.8194Z" fill="#00B67A"/>
<path d="M19.2229 17.7039L18.512 15.5906L13.3978 19.1538L19.2229 17.7039Z" fill="#005128"/>
<rect x="0.260132" y="33.2593" width="16.1601" height="16.2798" fill="#00B67A"/>
<rect x="17.7668" y="33.2593" width="16.1601" height="16.2798" fill="#00B67A"/>
<rect x="35.2736" y="33.2593" width="16.1601" height="16.2798" fill="#00B67A"/>
<rect x="52.7803" y="33.2593" width="16.1601" height="16.2798" fill="#00B67A"/>
<rect x="70.2871" y="33.2593" width="16.1601" height="16.2798" fill="url(#paint0_linear)"/>
<path fill-rule="evenodd" clip-rule="evenodd" d="M9.67001 40.1102H13.9962L10.5117 42.6539L8.357 44.2141L4.85565 46.7578L6.18549 42.6539L2.68414 40.1102H7.01033L8.34017 36.0063L9.67001 40.1102ZM10.7979 43.6037L8.34026 44.2311L11.8248 46.7918L10.7979 43.6037Z" fill="white"/>
<path fill-rule="evenodd" clip-rule="evenodd" d="M27.1767 40.1102H31.5029L28.0184 42.6539L25.8637 44.2141L22.3624 46.7578L23.6922 42.6539L20.1909 40.1102H24.517L25.8469 36.0063L27.1767 40.1102ZM28.3046 43.6037L25.8469 44.2311L29.3314 46.7918L28.3046 43.6037Z" fill="white"/>
<path fill-rule="evenodd" clip-rule="evenodd" d="M44.6834 40.1102H49.0096L45.5251 42.6539L43.3704 44.2141L39.869 46.7578L41.1989 42.6539L37.6975 40.1102H42.0237L43.3536 36.0063L44.6834 40.1102ZM45.8112 43.6037L43.3535 44.2311L46.838 46.7918L45.8112 43.6037Z" fill="white"/>
<path fill-rule="evenodd" clip-rule="evenodd" d="M62.1902 40.1102H66.5164L63.0319 42.6539L60.8772 44.2141L57.3759 46.7578L58.7057 42.6539L55.2043 40.1102H59.5305L60.8604 36.0063L62.1902 40.1102ZM63.3181 43.6037L60.8605 44.2311L64.345 46.7918L63.3181 43.6037Z" fill="white"/>
<path fill-rule="evenodd" clip-rule="evenodd" d="M79.6969 40.1102H84.0231L80.5386 42.6539L78.3839 44.2141L74.8826 46.7578L76.2124 42.6539L72.7111 40.1102H77.0372L78.3671 36.0063L79.6969 40.1102ZM80.8245 43.6037L78.3668 44.2311L81.8514 46.7918L80.8245 43.6037Z" fill="white"/>
<path d="M100.067 44.134H98.9499V46.2593H97.0494V44.134H93.1394V42.4378L96.7701 36.4434H98.9499V42.615H100.067V44.134ZM97.0494 42.615V38.3507L94.5767 42.615H97.0494ZM101.514 44.2294H103.578V46.2593H101.514V44.2294ZM107.013 43.1326C107.013 43.664 107.156 44.0977 107.442 44.4337C107.728 44.7698 108.092 44.9378 108.532 44.9378C108.964 44.9378 109.302 44.7766 109.547 44.4541C109.797 44.1272 109.922 43.7048 109.922 43.1871C109.922 42.6104 109.781 42.1699 109.5 41.8657C109.218 41.5568 108.873 41.4024 108.464 41.4024C108.133 41.4024 107.84 41.5024 107.585 41.7022C107.204 41.9973 107.013 42.4742 107.013 43.1326ZM109.745 38.8684C109.745 38.7095 109.683 38.5347 109.561 38.3439C109.352 38.0351 109.036 37.8807 108.614 37.8807C107.983 37.8807 107.533 38.2349 107.265 38.9434C107.12 39.3339 107.02 39.9107 106.966 40.6736C107.206 40.3875 107.486 40.1786 107.803 40.0469C108.121 39.9152 108.485 39.8494 108.893 39.8494C109.77 39.8494 110.487 40.1468 111.046 40.7417C111.609 41.3366 111.89 42.0973 111.89 43.0237C111.89 43.9455 111.616 44.7584 111.066 45.4623C110.517 46.1662 109.663 46.5181 108.505 46.5181C107.261 46.5181 106.343 45.9982 105.753 44.9582C105.294 44.1453 105.065 43.0963 105.065 41.8112C105.065 41.0573 105.097 40.4442 105.16 39.972C105.274 39.1318 105.494 38.4325 105.821 37.8739C106.103 37.3971 106.471 37.0134 106.925 36.7227C107.383 36.4321 107.931 36.2868 108.566 36.2868C109.484 36.2868 110.215 36.5229 110.76 36.9952C111.305 37.4629 111.611 38.0874 111.679 38.8684H109.745Z" fill="#333333"/>
<defs>
<linearGradient id="paint0_linear" x1="79" y1="41" x2="86" y2="41" gradientUnits="userSpaceOnUse">
<stop stop-color="#00B67A"/>
<stop offset="0.0001" stop-color="#E4E4E4"/>
</linearGradient>
</defs>
</svg>
