<svg width="28" height="28" viewBox="0 0 28 28" fill="none" xmlns="http://www.w3.org/2000/svg">
<path d="M14 0C6.26801 0 0 6.26801 0 14C0 21.732 6.26801 28 14 28C21.732 28 28 21.732 28 14C28 6.26801 21.732 0 14 0ZM20.4086 10.5493C19.9982 10.9071 19.5457 11.2122 19.5457 11.2122C19.5457 11.2122 19.907 12.7416 18.8967 15.0567C17.8865 17.3719 15.7117 19.1678 13.3966 19.5607C11.0815 19.9535 9.86075 19.715 8.92059 19.4484C7.98054 19.1819 6.97027 18.4803 6.97027 18.4803C6.97027 18.4803 8.61192 18.5224 9.6221 18.1856C10.6324 17.8489 11.2216 17.3438 11.2216 17.3438C11.2216 17.3438 10.1412 17.2596 9.28534 16.5019C8.42945 15.7443 8.38732 15.183 8.38732 15.183C8.38732 15.183 8.83633 15.2812 9.2713 15.2812C9.70626 15.2812 9.77638 15.2531 9.77638 15.2531C9.77638 15.2531 8.55565 14.9164 7.88223 13.8079C7.20872 12.6994 7.37715 12.2785 7.37715 12.2785C7.37715 12.2785 7.62974 12.4889 8.07875 12.6293C8.52776 12.7696 8.7943 12.6714 8.7943 12.6714C8.7943 12.6714 7.64378 12.04 7.55962 10.7211C7.47545 9.40214 7.91042 8.7848 7.91042 8.7848C7.91042 8.7848 8.69619 10.216 10.6885 11.0298C12.6809 11.8435 13.8876 11.7874 13.8876 11.7874C13.8876 11.7874 13.2703 9.5144 15.6275 8.53221C17.9847 7.55002 18.9949 9.28989 18.9949 9.28989C18.9949 9.28989 19.7351 9.07587 20.0824 8.89706C20.4296 8.71824 20.6401 8.48662 20.6401 8.48662C20.6401 8.48662 20.5242 8.97064 20.2191 9.37059C19.9139 9.77045 19.4825 10.1493 19.4825 10.1493C19.4825 10.1493 19.9456 10.0336 20.3559 9.89675C20.7664 9.75997 21.0294 9.65474 21.0294 9.65474C21.0294 9.65474 20.8191 10.1915 20.4086 10.5493Z" fill="#999999"/>
</svg>
