<svg width="25" height="24" viewBox="0 0 25 24" fill="none" xmlns="http://www.w3.org/2000/svg">
<path d="M3.98291 14.474C5.63976 14.474 6.98291 12.4767 6.98291 10.013C6.98291 7.54926 5.63976 5.552 3.98291 5.552C2.32606 5.552 0.98291 7.54926 0.98291 10.013C0.98291 12.4767 2.32606 14.474 3.98291 14.474Z" fill="#52BAD5"/>
<path d="M9.60993 8.443C11.4339 8.443 12.3759 6.201 12.2969 4.237C12.2059 1.94 10.9379 0.227 9.36493 0.25C7.59093 0.321 6.68093 2.522 6.75793 4.456C6.84593 6.659 8.06793 8.443 9.60993 8.443Z" fill="#52BAD5"/>
<path d="M21.6929 14.474C23.3497 14.474 24.6929 12.4767 24.6929 10.013C24.6929 7.54926 23.3497 5.552 21.6929 5.552C20.036 5.552 18.6929 7.54926 18.6929 10.013C18.6929 12.4767 20.036 14.474 21.6929 14.474Z" fill="#52BAD5"/>
<path d="M16.066 8.443C17.608 8.443 18.83 6.659 18.918 4.456C18.9929 2.568 18.107 0.321999 16.311 0.249999C14.738 0.224999 13.47 1.94 13.379 4.237C13.302 6.169 14.228 8.443 16.066 8.443Z" fill="#52BAD5"/>
<path d="M16.7381 13.431C16.3381 11.431 15.0991 9.286 12.8381 9.286C10.5771 9.286 9.33811 11.427 8.93811 13.432C8.66164 14.1718 8.20155 14.829 7.60111 15.342C6.62311 16.374 5.51611 17.542 5.51611 19.317C5.51611 23.305 11.4631 23.75 12.8401 23.75C16.3671 23.75 20.1641 22.363 20.1641 19.317C20.1641 17.544 19.0571 16.374 18.0791 15.342C17.4769 14.8293 17.0154 14.1716 16.7381 13.431Z" fill="#52BAD5"/>
</svg>
